<svg width="30" height="30" fill="none" xmlns="http://www.w3.org/2000/svg"><circle cx="15" cy="15" r="15" fill="#1C50DA" fill-opacity=".1"/><path d="M15 23c-4.411 0-8-3.589-8-8s3.589-8 8-8 8 3.589 8 8-3.589 8-8 8zm0-15.2c-3.97 0-7.2 3.23-7.2 7.2s3.23 7.2 7.2 7.2 7.2-3.23 7.2-7.2-3.23-7.2-7.2-7.2z" fill="#1C50DA"/><path fill-rule="evenodd" clip-rule="evenodd" d="M18.15 12.75c.185.166.2.45.034.636l-3.432 3.813a.9.9 0 01-1.306.034l-1.596-1.597a.45.45 0 01.636-.636l1.261 1.261a.45.45 0 00.653-.017l3.115-3.46a.45.45 0 01.635-.034z" fill="#1C50DA"/></svg>