<svg width="30" height="30" viewBox="0 0 30 30" fill="none" xmlns="http://www.w3.org/2000/svg">
<circle cx="15" cy="15" r="15" fill="white" fill-opacity="0.1"/>
<path d="M15 23C10.5887 23 7 19.411 7 15C7 10.5887 10.5887 7 15 7C19.411 7 23 10.5887 23 15C23 19.411 19.411 23 15 23ZM15 7.79998C11.0301 7.79998 7.79998 11.0301 7.79998 15C7.79998 18.9703 11.0301 22.2 15 22.2C18.9703 22.2 22.2 18.9704 22.2 15C22.2 11.0301 18.9703 7.79998 15 7.79998Z" fill="white"/>
<path fill-rule="evenodd" clip-rule="evenodd" d="M18.15 12.7501C18.3347 12.9164 18.3497 13.2009 18.1835 13.3856L14.7517 17.1985C14.4069 17.5817 13.811 17.5974 13.4464 17.2328L11.85 15.6364C11.6743 15.4607 11.6743 15.1757 11.85 14.9999C12.0257 14.8241 12.3107 14.8241 12.4865 14.9999L13.7475 16.261C13.9299 16.4433 14.2277 16.4354 14.4002 16.2438L17.5145 12.7834C17.6807 12.5988 17.9653 12.5838 18.15 12.7501Z" fill="white"/>
</svg>
